<mxfile host="app.diagrams.net" modified="2024-04-09T14:14:28.480Z" agent="Mozilla/5.0 (Windows NT 10.0; Win64; x64) AppleWebKit/537.36 (KHTML, like Gecko) Chrome/123.0.0.0 Safari/537.36" etag="y8eXvI8gnSe_dxPXBrtY" version="24.1.0" type="github" pages="2">
  <diagram id="2BybTVvr3je1taB3Ig6x" name="Multi框架">
    <mxGraphModel dx="1971" dy="796" grid="1" gridSize="10" guides="1" tooltips="1" connect="1" arrows="1" fold="1" page="0" pageScale="1" pageWidth="827" pageHeight="1169" math="1" shadow="0">
      <root>
        <mxCell id="0" />
        <mxCell id="1" parent="0" />
        <mxCell id="0VQXflkHDBme5YaXzQAI-1" value="" style="rounded=1;whiteSpace=wrap;html=1;labelBackgroundColor=#ffffff;fontFamily=Helvetica;strokeWidth=2;fillColor=#F7F7F7;strokeColor=#7F7F7F;arcSize=6;imageVerticalAlign=middle;noLabel=0;perimeterSpacing=0;" parent="1" vertex="1">
          <mxGeometry y="420" width="800" height="340" as="geometry" />
        </mxCell>
        <mxCell id="0VQXflkHDBme5YaXzQAI-2" value="&lt;span style=&quot;font-size: 25px;&quot;&gt;e&lt;sub&gt;1&lt;/sub&gt;&lt;/span&gt;" style="rounded=0;whiteSpace=wrap;html=1;fontFamily=Helvetica;strokeWidth=2;fillColor=#bdd7ee;" parent="1" vertex="1">
          <mxGeometry x="100" y="500" width="60" height="40" as="geometry" />
        </mxCell>
        <mxCell id="0VQXflkHDBme5YaXzQAI-6" value="&lt;span style=&quot;font-size: 30px;&quot;&gt;e&lt;sub&gt;x&lt;/sub&gt;&lt;/span&gt;" style="ellipse;whiteSpace=wrap;html=1;aspect=fixed;shadow=0;fontFamily=Helvetica;perimeterSpacing=1;strokeWidth=3;fontStyle=0;" parent="1" vertex="1">
          <mxGeometry x="368.5" y="350" width="50" height="50" as="geometry" />
        </mxCell>
        <mxCell id="0VQXflkHDBme5YaXzQAI-7" style="rounded=1;orthogonalLoop=1;jettySize=auto;html=1;fontFamily=Helvetica;endArrow=classic;endFill=1;strokeWidth=3;opacity=80;strokeColor=#666666;fillColor=#f5f5f5;endSize=6;exitX=1;exitY=0.5;exitDx=0;exitDy=0;dashed=1;entryX=0.5;entryY=0;entryDx=0;entryDy=0;" parent="1" source="0VQXflkHDBme5YaXzQAI-6" target="pebnR0OnpuEVUmmht2d_-15" edge="1">
          <mxGeometry relative="1" as="geometry">
            <mxPoint x="650" y="280" as="targetPoint" />
            <mxPoint x="179.99999999999977" y="361.0000000000001" as="sourcePoint" />
          </mxGeometry>
        </mxCell>
        <mxCell id="0VQXflkHDBme5YaXzQAI-15" value="&lt;font style=&quot;&quot;&gt;&lt;font color=&quot;#7f7f7f&quot; style=&quot;font-size: 40px;&quot;&gt;·····&lt;/font&gt;&lt;br style=&quot;font-size: 33px&quot;&gt;&lt;/font&gt;" style="text;html=1;align=center;verticalAlign=middle;resizable=0;points=[];autosize=1;fontStyle=1;fontFamily=Helvetica;fontSize=33;strokeWidth=3;rotation=0;" parent="1" vertex="1">
          <mxGeometry x="440" y="510" width="90" height="60" as="geometry" />
        </mxCell>
        <mxCell id="0VQXflkHDBme5YaXzQAI-16" value="&lt;span style=&quot;font-size: 25px;&quot;&gt;0&lt;/span&gt;" style="rounded=0;whiteSpace=wrap;html=1;fontFamily=Helvetica;strokeWidth=2;fillStyle=solid;fillColor=#e2f0d9;" parent="1" vertex="1">
          <mxGeometry x="100" y="460" width="120" height="40" as="geometry" />
        </mxCell>
        <mxCell id="0VQXflkHDBme5YaXzQAI-26" value="&lt;font style=&quot;font-size: 28px;&quot;&gt;&lt;font style=&quot;font-size: 28px;&quot;&gt;&lt;b style=&quot;font-size: 28px;&quot;&gt;HeavyLocker&lt;/b&gt;&lt;/font&gt;&lt;br style=&quot;font-size: 28px;&quot;&gt;&lt;/font&gt;" style="text;html=1;align=center;verticalAlign=middle;resizable=0;points=[];autosize=1;fontStyle=0;fontFamily=Arial;fontSize=28;strokeWidth=3;fontColor=#7f7f7f;" parent="1" vertex="1">
          <mxGeometry x="10" y="710" width="200" height="50" as="geometry" />
        </mxCell>
        <mxCell id="0VQXflkHDBme5YaXzQAI-31" value="&lt;font style=&quot;&quot;&gt;&lt;span style=&quot;&quot;&gt;&lt;font face=&quot;Arial&quot; style=&quot;font-size: 20px;&quot;&gt;Max Freq&lt;/font&gt;&lt;/span&gt;&lt;br style=&quot;font-size: 33px&quot;&gt;&lt;/font&gt;" style="text;html=1;align=center;verticalAlign=middle;resizable=0;points=[];autosize=1;fontStyle=0;fontFamily=Helvetica;fontSize=33;strokeWidth=3;" parent="1" vertex="1">
          <mxGeometry x="685" y="479" width="110" height="50" as="geometry" />
        </mxCell>
        <mxCell id="0VQXflkHDBme5YaXzQAI-36" value="&lt;font color=&quot;#000000&quot;&gt;&lt;span style=&quot;font-size: 25px;&quot;&gt;$$\mathcal{B_1}$$&lt;/span&gt;&lt;/font&gt;" style="text;html=1;strokeColor=none;fillColor=none;align=center;verticalAlign=middle;whiteSpace=wrap;rounded=0;fontSize=20;fontColor=#6C8EBF;opacity=0;" parent="1" vertex="1">
          <mxGeometry x="130" y="631" width="60" height="30" as="geometry" />
        </mxCell>
        <mxCell id="0VQXflkHDBme5YaXzQAI-45" value="&lt;font style=&quot;&quot;&gt;&lt;span style=&quot;font-size: 20px;&quot;&gt;Min Freq&lt;/span&gt;&lt;br style=&quot;font-size: 33px&quot;&gt;&lt;/font&gt;" style="text;html=1;align=center;verticalAlign=middle;resizable=0;points=[];autosize=1;fontStyle=0;fontFamily=Helvetica;fontSize=33;strokeWidth=3;" parent="1" vertex="1">
          <mxGeometry x="690" y="581" width="100" height="50" as="geometry" />
        </mxCell>
        <mxCell id="0VQXflkHDBme5YaXzQAI-49" value="&lt;font style=&quot;&quot;&gt;&lt;font style=&quot;font-size: 20px;&quot;&gt;hash(e&lt;sub&gt;x&lt;/sub&gt;)&lt;/font&gt;&lt;br style=&quot;font-size: 33px&quot;&gt;&lt;/font&gt;" style="text;html=1;align=center;verticalAlign=middle;resizable=0;points=[];autosize=1;fontStyle=0;fontFamily=Helvetica;fontSize=33;strokeWidth=3;" parent="1" vertex="1">
          <mxGeometry x="470" y="360" width="100" height="50" as="geometry" />
        </mxCell>
        <mxCell id="0VQXflkHDBme5YaXzQAI-50" value="&lt;font style=&quot;font-size: 17px;&quot;&gt;$$id$$&lt;/font&gt;" style="rounded=0;whiteSpace=wrap;html=1;fontFamily=Helvetica;strokeWidth=2;fillColor=#bdd7ee;" parent="1" vertex="1">
          <mxGeometry x="710" y="681.5" width="40" height="30" as="geometry" />
        </mxCell>
        <mxCell id="0VQXflkHDBme5YaXzQAI-53" value="&lt;font style=&quot;font-size: 20px;&quot;&gt;&lt;b&gt;&lt;i&gt;cell:&lt;/i&gt;&lt;/b&gt;&lt;/font&gt;" style="text;html=1;strokeColor=none;fillColor=none;align=center;verticalAlign=middle;whiteSpace=wrap;rounded=0;fontSize=17;fontFamily=Arial;fontColor=#000000;" parent="1" vertex="1">
          <mxGeometry x="654" y="681.5" width="50" height="30" as="geometry" />
        </mxCell>
        <mxCell id="0VQXflkHDBme5YaXzQAI-56" value="&lt;font style=&quot;font-size: 17px;&quot;&gt;$$cnt$$&lt;/font&gt;" style="rounded=0;whiteSpace=wrap;html=1;fontFamily=Helvetica;strokeWidth=2;fillColor=#deebf7;" parent="1" vertex="1">
          <mxGeometry x="750" y="681.5" width="40" height="30" as="geometry" />
        </mxCell>
        <mxCell id="0VQXflkHDBme5YaXzQAI-68" style="rounded=1;orthogonalLoop=1;jettySize=auto;html=1;fontFamily=Helvetica;endArrow=block;endFill=1;strokeWidth=0;strokeColor=none;fillColor=#7F7F7F;shape=flexArrow;startSize=4;endSize=5.388;width=22.8;endWidth=22.333333333333332;opacity=70;" parent="1" edge="1">
          <mxGeometry relative="1" as="geometry">
            <mxPoint x="740" y="590" as="targetPoint" />
            <mxPoint x="740" y="530" as="sourcePoint" />
          </mxGeometry>
        </mxCell>
        <mxCell id="pebnR0OnpuEVUmmht2d_-1" value="&lt;span style=&quot;font-size: 25px;&quot;&gt;800&lt;/span&gt;" style="rounded=0;whiteSpace=wrap;html=1;fontFamily=Helvetica;strokeWidth=2;fillColor=#deebf7;" parent="1" vertex="1">
          <mxGeometry x="160" y="500" width="60" height="40" as="geometry" />
        </mxCell>
        <mxCell id="pebnR0OnpuEVUmmht2d_-2" value="&lt;span style=&quot;font-size: 25px;&quot;&gt;e&lt;sub&gt;2&lt;/sub&gt;&lt;/span&gt;" style="rounded=0;whiteSpace=wrap;html=1;fontFamily=Helvetica;strokeWidth=2;fillColor=#bdd7ee;" parent="1" vertex="1">
          <mxGeometry x="100" y="540" width="60" height="40" as="geometry" />
        </mxCell>
        <mxCell id="pebnR0OnpuEVUmmht2d_-3" value="&lt;span style=&quot;font-size: 25px;&quot;&gt;75&lt;/span&gt;" style="rounded=0;whiteSpace=wrap;html=1;fontFamily=Helvetica;strokeWidth=2;fillColor=#deebf7;" parent="1" vertex="1">
          <mxGeometry x="160" y="540" width="60" height="40" as="geometry" />
        </mxCell>
        <mxCell id="pebnR0OnpuEVUmmht2d_-4" value="&lt;span style=&quot;font-size: 25px;&quot;&gt;e&lt;sub&gt;3&lt;/sub&gt;&lt;/span&gt;" style="rounded=0;whiteSpace=wrap;html=1;fontFamily=Helvetica;strokeWidth=2;fillColor=#bdd7ee;" parent="1" vertex="1">
          <mxGeometry x="100" y="580" width="60" height="40" as="geometry" />
        </mxCell>
        <mxCell id="pebnR0OnpuEVUmmht2d_-5" value="&lt;span style=&quot;font-size: 25px;&quot;&gt;4&lt;/span&gt;" style="rounded=0;whiteSpace=wrap;html=1;fontFamily=Helvetica;strokeWidth=2;fillColor=#deebf7;" parent="1" vertex="1">
          <mxGeometry x="160" y="580" width="60" height="40" as="geometry" />
        </mxCell>
        <mxCell id="pebnR0OnpuEVUmmht2d_-7" value="&lt;span style=&quot;font-size: 25px;&quot;&gt;e&lt;sub&gt;4&lt;/sub&gt;&lt;/span&gt;" style="rounded=0;whiteSpace=wrap;html=1;fontFamily=Helvetica;strokeWidth=2;fillColor=#bdd7ee;" parent="1" vertex="1">
          <mxGeometry x="280" y="500" width="60" height="40" as="geometry" />
        </mxCell>
        <mxCell id="pebnR0OnpuEVUmmht2d_-8" value="&lt;span style=&quot;font-size: 25px;&quot;&gt;0&lt;/span&gt;" style="rounded=0;whiteSpace=wrap;html=1;fontFamily=Helvetica;strokeWidth=2;fillStyle=solid;fillColor=#e2f0d9;" parent="1" vertex="1">
          <mxGeometry x="280" y="460" width="120" height="40" as="geometry" />
        </mxCell>
        <mxCell id="pebnR0OnpuEVUmmht2d_-9" value="&lt;span style=&quot;font-size: 25px;&quot;&gt;70&lt;/span&gt;" style="rounded=0;whiteSpace=wrap;html=1;fontFamily=Helvetica;strokeWidth=2;fillColor=#deebf7;" parent="1" vertex="1">
          <mxGeometry x="340" y="500" width="60" height="40" as="geometry" />
        </mxCell>
        <mxCell id="pebnR0OnpuEVUmmht2d_-10" value="&lt;span style=&quot;font-size: 25px;&quot;&gt;e&lt;sub&gt;5&lt;/sub&gt;&lt;/span&gt;" style="rounded=0;whiteSpace=wrap;html=1;fontFamily=Helvetica;strokeWidth=2;fillColor=#bdd7ee;" parent="1" vertex="1">
          <mxGeometry x="280" y="540" width="60" height="40" as="geometry" />
        </mxCell>
        <mxCell id="pebnR0OnpuEVUmmht2d_-11" value="&lt;span style=&quot;font-size: 25px;&quot;&gt;63&lt;/span&gt;" style="rounded=0;whiteSpace=wrap;html=1;fontFamily=Helvetica;strokeWidth=2;fillColor=#deebf7;" parent="1" vertex="1">
          <mxGeometry x="340" y="540" width="60" height="40" as="geometry" />
        </mxCell>
        <mxCell id="pebnR0OnpuEVUmmht2d_-12" value="&lt;font style=&quot;font-size: 25px;&quot;&gt;-&lt;/font&gt;" style="rounded=0;whiteSpace=wrap;html=1;fontFamily=Helvetica;strokeWidth=2;fillColor=#bdd7ee;" parent="1" vertex="1">
          <mxGeometry x="280" y="580" width="60" height="40" as="geometry" />
        </mxCell>
        <mxCell id="pebnR0OnpuEVUmmht2d_-13" value="&lt;font style=&quot;font-size: 25px;&quot;&gt;-&lt;/font&gt;" style="rounded=0;whiteSpace=wrap;html=1;fontFamily=Helvetica;strokeWidth=2;fillColor=#deebf7;" parent="1" vertex="1">
          <mxGeometry x="340" y="580" width="60" height="40" as="geometry" />
        </mxCell>
        <mxCell id="pebnR0OnpuEVUmmht2d_-14" value="&lt;span style=&quot;font-size: 25px;&quot;&gt;e&lt;sub&gt;x&lt;/sub&gt;&lt;/span&gt;" style="rounded=0;whiteSpace=wrap;html=1;fontFamily=Helvetica;strokeWidth=2;fillColor=#bdd7ee;" parent="1" vertex="1">
          <mxGeometry x="560" y="500" width="60" height="40" as="geometry" />
        </mxCell>
        <mxCell id="pebnR0OnpuEVUmmht2d_-15" value="&lt;span style=&quot;font-size: 25px;&quot;&gt;1&lt;/span&gt;" style="rounded=0;whiteSpace=wrap;html=1;fontFamily=Helvetica;strokeWidth=2;fillStyle=solid;fillColor=#fad9d5;strokeColor=#000000;" parent="1" vertex="1">
          <mxGeometry x="560" y="460" width="120" height="40" as="geometry" />
        </mxCell>
        <mxCell id="pebnR0OnpuEVUmmht2d_-17" value="&lt;span style=&quot;font-size: 25px;&quot;&gt;1300&lt;/span&gt;" style="rounded=0;whiteSpace=wrap;html=1;fontFamily=Helvetica;strokeWidth=2;fillColor=#deebf7;" parent="1" vertex="1">
          <mxGeometry x="620" y="500" width="60" height="40" as="geometry" />
        </mxCell>
        <mxCell id="pebnR0OnpuEVUmmht2d_-18" value="&lt;span style=&quot;font-size: 25px;&quot;&gt;e&lt;sub&gt;y&lt;/sub&gt;&lt;/span&gt;" style="rounded=0;whiteSpace=wrap;html=1;fontFamily=Helvetica;strokeWidth=2;fillColor=#bdd7ee;" parent="1" vertex="1">
          <mxGeometry x="560" y="540" width="60" height="40" as="geometry" />
        </mxCell>
        <mxCell id="pebnR0OnpuEVUmmht2d_-19" value="&lt;span style=&quot;font-size: 25px;&quot;&gt;950&lt;/span&gt;" style="rounded=0;whiteSpace=wrap;html=1;fontFamily=Helvetica;strokeWidth=2;fillColor=#deebf7;" parent="1" vertex="1">
          <mxGeometry x="620" y="540" width="60" height="40" as="geometry" />
        </mxCell>
        <mxCell id="pebnR0OnpuEVUmmht2d_-20" value="&lt;span style=&quot;font-size: 25px;&quot;&gt;e&lt;sub&gt;z&lt;/sub&gt;&lt;/span&gt;" style="rounded=0;whiteSpace=wrap;html=1;fontFamily=Helvetica;strokeWidth=2;fillColor=#bdd7ee;" parent="1" vertex="1">
          <mxGeometry x="560" y="580" width="60" height="40" as="geometry" />
        </mxCell>
        <mxCell id="pebnR0OnpuEVUmmht2d_-21" value="&lt;span style=&quot;font-size: 25px;&quot;&gt;500&lt;/span&gt;" style="rounded=0;whiteSpace=wrap;html=1;fontFamily=Helvetica;strokeWidth=2;fillColor=#deebf7;" parent="1" vertex="1">
          <mxGeometry x="620" y="580" width="60" height="40" as="geometry" />
        </mxCell>
        <mxCell id="pebnR0OnpuEVUmmht2d_-22" value="&lt;font color=&quot;#000000&quot;&gt;&lt;span style=&quot;font-size: 25px;&quot;&gt;$$\mathcal{B_2}$$&lt;/span&gt;&lt;/font&gt;" style="text;html=1;strokeColor=none;fillColor=none;align=center;verticalAlign=middle;whiteSpace=wrap;rounded=0;fontSize=20;fontColor=#6C8EBF;opacity=0;" parent="1" vertex="1">
          <mxGeometry x="310" y="631" width="60" height="30" as="geometry" />
        </mxCell>
        <mxCell id="pebnR0OnpuEVUmmht2d_-23" value="&lt;font color=&quot;#000000&quot;&gt;&lt;span style=&quot;font-size: 25px;&quot;&gt;$$\mathcal{B_w}$$&lt;/span&gt;&lt;/font&gt;" style="text;html=1;strokeColor=none;fillColor=none;align=center;verticalAlign=middle;whiteSpace=wrap;rounded=0;fontSize=20;fontColor=#6C8EBF;opacity=0;" parent="1" vertex="1">
          <mxGeometry x="590" y="631" width="60" height="30" as="geometry" />
        </mxCell>
        <mxCell id="pebnR0OnpuEVUmmht2d_-24" value="" style="shape=curlyBracket;whiteSpace=wrap;html=1;rounded=1;labelPosition=left;verticalLabelPosition=middle;align=right;verticalAlign=middle;strokeWidth=2;fillColor=#f5f5f5;fontColor=#333333;strokeColor=#666666;" parent="1" vertex="1">
          <mxGeometry x="50" y="510" width="40" height="100" as="geometry" />
        </mxCell>
        <mxCell id="pebnR0OnpuEVUmmht2d_-25" value="&lt;font style=&quot;font-size: 20px;&quot;&gt;`d`&lt;br&gt;cells&lt;/font&gt;" style="text;html=1;strokeColor=none;fillColor=none;align=center;verticalAlign=middle;whiteSpace=wrap;rounded=0;fontSize=17;fontFamily=Arial;fontColor=#000000;" parent="1" vertex="1">
          <mxGeometry x="10" y="545" width="40" height="30" as="geometry" />
        </mxCell>
        <mxCell id="pebnR0OnpuEVUmmht2d_-26" value="" style="shape=curlyBracket;whiteSpace=wrap;html=1;rounded=1;labelPosition=left;verticalLabelPosition=middle;align=right;verticalAlign=middle;strokeWidth=2;fillColor=#f5f5f5;fontColor=#333333;strokeColor=#666666;rotation=-90;" parent="1" vertex="1">
          <mxGeometry x="373.5" y="462" width="40" height="469" as="geometry" />
        </mxCell>
        <mxCell id="pebnR0OnpuEVUmmht2d_-27" value="&lt;font style=&quot;font-size: 20px;&quot;&gt;`w` buckets&lt;/font&gt;" style="text;html=1;strokeColor=none;fillColor=none;align=center;verticalAlign=middle;whiteSpace=wrap;rounded=0;fontSize=17;fontFamily=Arial;fontColor=#000000;" parent="1" vertex="1">
          <mxGeometry x="343.5" y="720" width="100" height="30" as="geometry" />
        </mxCell>
        <mxCell id="pebnR0OnpuEVUmmht2d_-31" value="&lt;font style=&quot;font-size: 20px;&quot;&gt;0&lt;/font&gt;" style="rounded=0;whiteSpace=wrap;html=1;fontFamily=Helvetica;strokeWidth=2;fillColor=#e2f0d9;" parent="1" vertex="1">
          <mxGeometry x="710" y="720" width="30" height="30" as="geometry" />
        </mxCell>
        <mxCell id="pebnR0OnpuEVUmmht2d_-32" value="&lt;font style=&quot;font-size: 20px;&quot;&gt;&lt;b&gt;&lt;i&gt;lock-bit:&lt;/i&gt;&lt;/b&gt;&lt;/font&gt;" style="text;html=1;strokeColor=none;fillColor=none;align=center;verticalAlign=middle;whiteSpace=wrap;rounded=0;fontSize=17;fontFamily=Arial;fontColor=#000000;" parent="1" vertex="1">
          <mxGeometry x="620" y="720" width="80" height="30" as="geometry" />
        </mxCell>
        <mxCell id="pebnR0OnpuEVUmmht2d_-34" value="&lt;font size=&quot;1&quot; style=&quot;&quot;&gt;&lt;b style=&quot;font-size: 30px;&quot;&gt;/&lt;/b&gt;&lt;/font&gt;" style="text;html=1;strokeColor=none;fillColor=none;align=center;verticalAlign=middle;whiteSpace=wrap;rounded=0;fontSize=25;fontFamily=Arial;fontColor=#000000;" parent="1" vertex="1">
          <mxGeometry x="738" y="720" width="25" height="30" as="geometry" />
        </mxCell>
        <mxCell id="pebnR0OnpuEVUmmht2d_-36" value="&lt;span style=&quot;font-size: 20px;&quot;&gt;1&lt;/span&gt;" style="rounded=0;whiteSpace=wrap;html=1;fontFamily=Helvetica;strokeWidth=2;fillColor=#fad9d5;" parent="1" vertex="1">
          <mxGeometry x="760" y="720" width="30" height="30" as="geometry" />
        </mxCell>
      </root>
    </mxGraphModel>
  </diagram>
  <diagram id="s77Xc-6Qdp-9p3tDaP6c" name="第 2 页">
    <mxGraphModel dx="1833" dy="928" grid="1" gridSize="10" guides="1" tooltips="1" connect="1" arrows="1" fold="1" page="0" pageScale="1" pageWidth="827" pageHeight="1169" math="1" shadow="0">
      <root>
        <mxCell id="0" />
        <mxCell id="1" parent="0" />
        <mxCell id="xxyTyY62P0I5MEGD_4CM-1" value="&lt;span style=&quot;font-size: 25px;&quot;&gt;$$(e_{17},500)$$&lt;/span&gt;" style="rounded=0;whiteSpace=wrap;html=1;fontFamily=Helvetica;strokeWidth=3;fillColor=#dae8fc;strokeColor=#000000;opacity=80;" vertex="1" parent="1">
          <mxGeometry x="120" y="240" width="160" height="40" as="geometry" />
        </mxCell>
        <mxCell id="IK3wqfKOWQBOBFi0QGid-1" value="&lt;span style=&quot;font-size: 25px;&quot;&gt;$$(e_3,200)$$&lt;/span&gt;" style="rounded=0;whiteSpace=wrap;html=1;fontFamily=Helvetica;strokeWidth=3;fillColor=#dae8fc;strokeColor=#000000;opacity=80;" vertex="1" parent="1">
          <mxGeometry x="120" y="280" width="160" height="40" as="geometry" />
        </mxCell>
        <mxCell id="IK3wqfKOWQBOBFi0QGid-2" value="&lt;span style=&quot;font-size: 25px;&quot;&gt;$$(e_8,82)$$&lt;/span&gt;" style="rounded=0;whiteSpace=wrap;html=1;fontFamily=Helvetica;strokeWidth=3;fillColor=#dae8fc;strokeColor=#000000;opacity=80;" vertex="1" parent="1">
          <mxGeometry x="120" y="320" width="160" height="40" as="geometry" />
        </mxCell>
        <mxCell id="IK3wqfKOWQBOBFi0QGid-3" value="&lt;span style=&quot;font-size: 25px;&quot;&gt;$$1$$&lt;/span&gt;" style="rounded=0;whiteSpace=wrap;html=1;fontFamily=Helvetica;strokeWidth=3;fillColor=#f8cecc;strokeColor=#000000;opacity=80;" vertex="1" parent="1">
          <mxGeometry x="120" y="200" width="160" height="40" as="geometry" />
        </mxCell>
        <mxCell id="Pvn3mfC9pJ9ff3sj0fmv-1" style="rounded=1;orthogonalLoop=1;jettySize=auto;html=1;fontFamily=Helvetica;endArrow=block;endFill=1;strokeWidth=0;strokeColor=none;fillColor=#7F7F7F;shape=flexArrow;startSize=4;endSize=4;width=3.5714285714285716;endWidth=12.749999999999998;" edge="1" parent="1">
          <mxGeometry relative="1" as="geometry">
            <mxPoint x="390" y="340" as="targetPoint" />
            <mxPoint x="290" y="340" as="sourcePoint" />
          </mxGeometry>
        </mxCell>
        <mxCell id="Pvn3mfC9pJ9ff3sj0fmv-3" value="&lt;font style=&quot;font-size: 25px;&quot;&gt;$$e_2$$&lt;/font&gt;" style="ellipse;whiteSpace=wrap;html=1;aspect=fixed;fillColor=none;strokeWidth=3;" vertex="1" parent="1">
          <mxGeometry x="320" y="290" width="40" height="40" as="geometry" />
        </mxCell>
        <mxCell id="Oa_50JST940CdHdh_vZq-4" value="&lt;span style=&quot;font-size: 25px;&quot;&gt;$$0$$&lt;/span&gt;" style="rounded=0;whiteSpace=wrap;html=1;fontFamily=Helvetica;strokeWidth=3;fillColor=#d5e8d4;strokeColor=#000000;opacity=80;" vertex="1" parent="1">
          <mxGeometry x="920" y="200" width="160" height="40" as="geometry" />
        </mxCell>
        <mxCell id="Oa_50JST940CdHdh_vZq-9" style="rounded=1;orthogonalLoop=1;jettySize=auto;html=1;fontFamily=Helvetica;endArrow=block;endFill=1;strokeWidth=0;strokeColor=none;fillColor=#7F7F7F;shape=flexArrow;startSize=4;endSize=4;width=3.5714285714285716;endWidth=12.749999999999998;" edge="1" parent="1">
          <mxGeometry relative="1" as="geometry">
            <mxPoint x="670" y="340" as="targetPoint" />
            <mxPoint x="570" y="340" as="sourcePoint" />
          </mxGeometry>
        </mxCell>
        <mxCell id="Oa_50JST940CdHdh_vZq-10" value="&lt;font style=&quot;font-size: 25px;&quot;&gt;$$e_3$$&lt;/font&gt;" style="ellipse;whiteSpace=wrap;html=1;aspect=fixed;fillColor=none;strokeWidth=3;" vertex="1" parent="1">
          <mxGeometry x="600" y="290" width="40" height="40" as="geometry" />
        </mxCell>
        <mxCell id="vwqqChAQIn_X0hhrEUNo-1" value="&lt;span style=&quot;font-size: 25px;&quot;&gt;$$1$$&lt;/span&gt;" style="rounded=0;whiteSpace=wrap;html=1;fontFamily=Helvetica;strokeWidth=3;fillColor=#f8cecc;strokeColor=#000000;opacity=80;" vertex="1" parent="1">
          <mxGeometry x="400" y="200" width="160" height="40" as="geometry" />
        </mxCell>
        <mxCell id="vwqqChAQIn_X0hhrEUNo-6" value="&lt;span style=&quot;font-size: 25px;&quot;&gt;$$(e_{17},500)$$&lt;/span&gt;" style="rounded=0;whiteSpace=wrap;html=1;fontFamily=Helvetica;strokeWidth=3;fillColor=#dae8fc;strokeColor=#000000;opacity=80;" vertex="1" parent="1">
          <mxGeometry x="400" y="240" width="160" height="40" as="geometry" />
        </mxCell>
        <mxCell id="vwqqChAQIn_X0hhrEUNo-7" value="&lt;span style=&quot;font-size: 25px;&quot;&gt;$$(e_3,200)$$&lt;/span&gt;" style="rounded=0;whiteSpace=wrap;html=1;fontFamily=Helvetica;strokeWidth=3;fillColor=#dae8fc;strokeColor=#000000;opacity=80;" vertex="1" parent="1">
          <mxGeometry x="400" y="280" width="160" height="40" as="geometry" />
        </mxCell>
        <mxCell id="vwqqChAQIn_X0hhrEUNo-9" value="&lt;span style=&quot;font-size: 25px;&quot;&gt;$$(e_{17},500)$$&lt;/span&gt;" style="rounded=0;whiteSpace=wrap;html=1;fontFamily=Helvetica;strokeWidth=3;fillColor=#dae8fc;strokeColor=#000000;opacity=80;" vertex="1" parent="1">
          <mxGeometry x="680" y="240" width="160" height="40" as="geometry" />
        </mxCell>
        <mxCell id="vwqqChAQIn_X0hhrEUNo-10" value="&lt;span style=&quot;font-size: 25px;&quot;&gt;$$(e_3,\textbf{201})$$&lt;/span&gt;" style="rounded=0;whiteSpace=wrap;html=1;fontFamily=Helvetica;strokeWidth=3;fillColor=#dae8fc;strokeColor=#000000;opacity=80;" vertex="1" parent="1">
          <mxGeometry x="680" y="280" width="160" height="40" as="geometry" />
        </mxCell>
        <mxCell id="vwqqChAQIn_X0hhrEUNo-12" value="&lt;font style=&quot;font-size: 20px;&quot;&gt;$$item_{num}=81999$$&lt;/font&gt;" style="text;html=1;align=center;verticalAlign=middle;whiteSpace=wrap;rounded=0;" vertex="1" parent="1">
          <mxGeometry x="170" y="120" width="60" height="30" as="geometry" />
        </mxCell>
        <mxCell id="vwqqChAQIn_X0hhrEUNo-18" value="&lt;font style=&quot;font-size: 20px;&quot;&gt;$$\underline{\theta=0.1\%}$$&lt;/font&gt;" style="text;html=1;align=center;verticalAlign=middle;whiteSpace=wrap;rounded=0;" vertex="1" parent="1">
          <mxGeometry x="170" y="80" width="60" height="30" as="geometry" />
        </mxCell>
        <mxCell id="vwqqChAQIn_X0hhrEUNo-19" value="&lt;font style=&quot;font-size: 20px;&quot;&gt;$$threshold=81.999$$&lt;/font&gt;" style="text;html=1;align=center;verticalAlign=middle;whiteSpace=wrap;rounded=0;" vertex="1" parent="1">
          <mxGeometry x="170" y="160" width="60" height="30" as="geometry" />
        </mxCell>
        <mxCell id="vwqqChAQIn_X0hhrEUNo-21" value="&lt;font style=&quot;font-size: 20px;&quot;&gt;$$item_{num}=\textbf{82000}$$&lt;/font&gt;" style="text;html=1;align=center;verticalAlign=middle;whiteSpace=wrap;rounded=0;" vertex="1" parent="1">
          <mxGeometry x="450" y="120" width="60" height="30" as="geometry" />
        </mxCell>
        <mxCell id="vwqqChAQIn_X0hhrEUNo-23" value="&lt;font style=&quot;font-size: 20px;&quot;&gt;$$threshold=82$$&lt;/font&gt;" style="text;html=1;align=center;verticalAlign=middle;whiteSpace=wrap;rounded=0;" vertex="1" parent="1">
          <mxGeometry x="450" y="160" width="60" height="30" as="geometry" />
        </mxCell>
        <mxCell id="vwqqChAQIn_X0hhrEUNo-24" value="&lt;font style=&quot;font-size: 20px;&quot;&gt;$$item_{num}=\textbf{82001}$$&lt;/font&gt;" style="text;html=1;align=center;verticalAlign=middle;whiteSpace=wrap;rounded=0;" vertex="1" parent="1">
          <mxGeometry x="730" y="120" width="60" height="30" as="geometry" />
        </mxCell>
        <mxCell id="vwqqChAQIn_X0hhrEUNo-26" value="&lt;font style=&quot;font-size: 20px;&quot;&gt;$$threshold=82.001$$&lt;/font&gt;" style="text;html=1;align=center;verticalAlign=middle;whiteSpace=wrap;rounded=0;" vertex="1" parent="1">
          <mxGeometry x="730" y="160" width="60" height="30" as="geometry" />
        </mxCell>
        <mxCell id="vwqqChAQIn_X0hhrEUNo-27" value="&lt;span style=&quot;font-size: 25px;&quot;&gt;$$(e_{6},200)$$&lt;/span&gt;" style="rounded=0;whiteSpace=wrap;html=1;fontFamily=Helvetica;strokeWidth=3;fillColor=#dae8fc;strokeColor=#000000;opacity=80;" vertex="1" parent="1">
          <mxGeometry x="920" y="240" width="160" height="40" as="geometry" />
        </mxCell>
        <mxCell id="vwqqChAQIn_X0hhrEUNo-28" value="&lt;span style=&quot;font-size: 25px;&quot;&gt;$$(e_1,70)$$&lt;/span&gt;" style="rounded=0;whiteSpace=wrap;html=1;fontFamily=Helvetica;strokeWidth=3;fillColor=#dae8fc;strokeColor=#000000;opacity=80;" vertex="1" parent="1">
          <mxGeometry x="920" y="280" width="160" height="40" as="geometry" />
        </mxCell>
        <mxCell id="vwqqChAQIn_X0hhrEUNo-29" value="&lt;span style=&quot;font-size: 25px;&quot;&gt;$$(e_4,6)$$&lt;/span&gt;" style="rounded=0;whiteSpace=wrap;html=1;fontFamily=Helvetica;strokeWidth=3;fillColor=#dae8fc;strokeColor=#000000;opacity=80;" vertex="1" parent="1">
          <mxGeometry x="920" y="320" width="160" height="40" as="geometry" />
        </mxCell>
        <mxCell id="vwqqChAQIn_X0hhrEUNo-33" value="&lt;font style=&quot;font-size: 20px;&quot;&gt;$$item_{num}=6500$$&lt;/font&gt;" style="text;html=1;align=center;verticalAlign=middle;whiteSpace=wrap;rounded=0;" vertex="1" parent="1">
          <mxGeometry x="970" y="120" width="60" height="30" as="geometry" />
        </mxCell>
        <mxCell id="vwqqChAQIn_X0hhrEUNo-34" value="&lt;font style=&quot;font-size: 20px;&quot;&gt;$$threshold=6.5$$&lt;/font&gt;" style="text;html=1;align=center;verticalAlign=middle;whiteSpace=wrap;rounded=0;" vertex="1" parent="1">
          <mxGeometry x="970" y="160" width="60" height="30" as="geometry" />
        </mxCell>
        <mxCell id="vwqqChAQIn_X0hhrEUNo-35" value="&lt;span style=&quot;font-size: 25px;&quot;&gt;$$0$$&lt;/span&gt;" style="rounded=0;whiteSpace=wrap;html=1;fontFamily=Helvetica;strokeWidth=3;fillColor=#d5e8d4;strokeColor=#000000;opacity=80;" vertex="1" parent="1">
          <mxGeometry x="1200" y="200" width="160" height="40" as="geometry" />
        </mxCell>
        <mxCell id="vwqqChAQIn_X0hhrEUNo-36" value="&lt;span style=&quot;font-size: 25px;&quot;&gt;$$(e_{6},200)$$&lt;/span&gt;" style="rounded=0;whiteSpace=wrap;html=1;fontFamily=Helvetica;strokeWidth=3;fillColor=#dae8fc;strokeColor=#000000;opacity=80;" vertex="1" parent="1">
          <mxGeometry x="1200" y="240" width="160" height="40" as="geometry" />
        </mxCell>
        <mxCell id="vwqqChAQIn_X0hhrEUNo-37" value="&lt;span style=&quot;font-size: 25px;&quot;&gt;$$(e_1,70)$$&lt;/span&gt;" style="rounded=0;whiteSpace=wrap;html=1;fontFamily=Helvetica;strokeWidth=3;fillColor=#dae8fc;strokeColor=#000000;opacity=80;" vertex="1" parent="1">
          <mxGeometry x="1200" y="280" width="160" height="40" as="geometry" />
        </mxCell>
        <mxCell id="vwqqChAQIn_X0hhrEUNo-38" value="&lt;span style=&quot;font-size: 25px;&quot;&gt;$$(e_4,6)$$&lt;/span&gt;" style="rounded=0;whiteSpace=wrap;html=1;fontFamily=Helvetica;strokeWidth=3;fillColor=#dae8fc;strokeColor=#000000;opacity=80;" vertex="1" parent="1">
          <mxGeometry x="1200" y="320" width="160" height="40" as="geometry" />
        </mxCell>
        <mxCell id="vwqqChAQIn_X0hhrEUNo-39" value="&lt;font style=&quot;font-size: 20px;&quot;&gt;$$item_{num}=\textbf{6501}$$&lt;/font&gt;" style="text;html=1;align=center;verticalAlign=middle;whiteSpace=wrap;rounded=0;" vertex="1" parent="1">
          <mxGeometry x="1250" y="120" width="60" height="30" as="geometry" />
        </mxCell>
        <mxCell id="vwqqChAQIn_X0hhrEUNo-40" value="&lt;font style=&quot;font-size: 20px;&quot;&gt;$$threshold=6.501$$&lt;/font&gt;" style="text;html=1;align=center;verticalAlign=middle;whiteSpace=wrap;rounded=0;" vertex="1" parent="1">
          <mxGeometry x="1250" y="160" width="60" height="30" as="geometry" />
        </mxCell>
        <mxCell id="vwqqChAQIn_X0hhrEUNo-42" value="&lt;span style=&quot;font-size: 25px;&quot;&gt;$$(e_{6},200)$$&lt;/span&gt;" style="rounded=0;whiteSpace=wrap;html=1;fontFamily=Helvetica;strokeWidth=3;fillColor=#dae8fc;strokeColor=#000000;opacity=80;" vertex="1" parent="1">
          <mxGeometry x="1480" y="240" width="160" height="40" as="geometry" />
        </mxCell>
        <mxCell id="vwqqChAQIn_X0hhrEUNo-43" value="&lt;span style=&quot;font-size: 25px;&quot;&gt;$$(e_1,70)$$&lt;/span&gt;" style="rounded=0;whiteSpace=wrap;html=1;fontFamily=Helvetica;strokeWidth=3;fillColor=#dae8fc;strokeColor=#000000;opacity=80;" vertex="1" parent="1">
          <mxGeometry x="1480" y="280" width="160" height="40" as="geometry" />
        </mxCell>
        <mxCell id="vwqqChAQIn_X0hhrEUNo-44" value="&lt;span style=&quot;font-size: 25px;&quot;&gt;$$(e_9,\textbf{7})$$&lt;/span&gt;" style="rounded=0;whiteSpace=wrap;html=1;fontFamily=Helvetica;strokeWidth=3;fillColor=#dae8fc;strokeColor=#000000;opacity=80;" vertex="1" parent="1">
          <mxGeometry x="1480" y="320" width="160" height="40" as="geometry" />
        </mxCell>
        <mxCell id="vwqqChAQIn_X0hhrEUNo-45" value="&lt;font style=&quot;font-size: 20px;&quot;&gt;$$item_{num}=\textbf{6502}$$&lt;/font&gt;" style="text;html=1;align=center;verticalAlign=middle;whiteSpace=wrap;rounded=0;" vertex="1" parent="1">
          <mxGeometry x="1530" y="120" width="60" height="30" as="geometry" />
        </mxCell>
        <mxCell id="vwqqChAQIn_X0hhrEUNo-46" value="&lt;font style=&quot;font-size: 20px;&quot;&gt;$$threshold=6.502$$&lt;/font&gt;" style="text;html=1;align=center;verticalAlign=middle;whiteSpace=wrap;rounded=0;" vertex="1" parent="1">
          <mxGeometry x="1530" y="160" width="60" height="30" as="geometry" />
        </mxCell>
        <mxCell id="vwqqChAQIn_X0hhrEUNo-47" style="rounded=1;orthogonalLoop=1;jettySize=auto;html=1;fontFamily=Helvetica;endArrow=block;endFill=1;strokeWidth=0;strokeColor=none;fillColor=#7F7F7F;shape=flexArrow;startSize=4;endSize=4;width=3.5714285714285716;endWidth=12.749999999999998;" edge="1" parent="1">
          <mxGeometry relative="1" as="geometry">
            <mxPoint x="1190" y="340" as="targetPoint" />
            <mxPoint x="1090" y="340" as="sourcePoint" />
          </mxGeometry>
        </mxCell>
        <mxCell id="vwqqChAQIn_X0hhrEUNo-48" value="&lt;font style=&quot;font-size: 25px;&quot;&gt;$$e_3$$&lt;/font&gt;" style="ellipse;whiteSpace=wrap;html=1;aspect=fixed;fillColor=none;strokeWidth=3;" vertex="1" parent="1">
          <mxGeometry x="1120" y="290" width="40" height="40" as="geometry" />
        </mxCell>
        <mxCell id="vwqqChAQIn_X0hhrEUNo-49" style="rounded=1;orthogonalLoop=1;jettySize=auto;html=1;fontFamily=Helvetica;endArrow=block;endFill=1;strokeWidth=0;strokeColor=none;fillColor=#7F7F7F;shape=flexArrow;startSize=4;endSize=4;width=3.5714285714285716;endWidth=12.749999999999998;" edge="1" parent="1">
          <mxGeometry relative="1" as="geometry">
            <mxPoint x="1470" y="340" as="targetPoint" />
            <mxPoint x="1370" y="340" as="sourcePoint" />
          </mxGeometry>
        </mxCell>
        <mxCell id="vwqqChAQIn_X0hhrEUNo-50" value="&lt;font style=&quot;font-size: 25px;&quot;&gt;$$e_9$$&lt;/font&gt;" style="ellipse;whiteSpace=wrap;html=1;aspect=fixed;fillColor=none;strokeWidth=3;" vertex="1" parent="1">
          <mxGeometry x="1400" y="290" width="40" height="40" as="geometry" />
        </mxCell>
        <mxCell id="vwqqChAQIn_X0hhrEUNo-51" value="&lt;font style=&quot;font-size: 20px;&quot;&gt;$$\frac{1}{7}$$&lt;/font&gt;" style="text;html=1;align=center;verticalAlign=middle;whiteSpace=wrap;rounded=0;" vertex="1" parent="1">
          <mxGeometry x="1090" y="360" width="60" height="30" as="geometry" />
        </mxCell>
        <mxCell id="vwqqChAQIn_X0hhrEUNo-52" value="" style="verticalLabelPosition=bottom;verticalAlign=top;html=1;shape=mxgraph.basic.x;fillColor=#e51400;strokeColor=#000000;fontColor=#ffffff;opacity=70;" vertex="1" parent="1">
          <mxGeometry x="1140" y="365" width="20" height="20" as="geometry" />
        </mxCell>
        <mxCell id="vwqqChAQIn_X0hhrEUNo-56" value="&lt;span style=&quot;font-size: 25px;&quot;&gt;$$1$$&lt;/span&gt;" style="rounded=0;whiteSpace=wrap;html=1;fontFamily=Helvetica;strokeWidth=3;fillColor=#f8cecc;strokeColor=#000000;opacity=80;" vertex="1" parent="1">
          <mxGeometry x="1480" y="200" width="160" height="40" as="geometry" />
        </mxCell>
        <mxCell id="vwqqChAQIn_X0hhrEUNo-57" value="&lt;font style=&quot;font-size: 20px;&quot;&gt;$$\frac{1}{7}$$&lt;/font&gt;" style="text;html=1;align=center;verticalAlign=middle;whiteSpace=wrap;rounded=0;" vertex="1" parent="1">
          <mxGeometry x="1370" y="360" width="60" height="30" as="geometry" />
        </mxCell>
        <mxCell id="vwqqChAQIn_X0hhrEUNo-59" value="" style="verticalLabelPosition=bottom;verticalAlign=top;html=1;shape=mxgraph.basic.tick;fillColor=#cdeb8b;strokeColor=#36393d;" vertex="1" parent="1">
          <mxGeometry x="1420" y="365" width="20" height="20" as="geometry" />
        </mxCell>
        <mxCell id="vwqqChAQIn_X0hhrEUNo-60" value="&lt;span style=&quot;font-size: 25px;&quot;&gt;$$(e_8,82)$$&lt;/span&gt;" style="rounded=0;whiteSpace=wrap;html=1;fontFamily=Helvetica;strokeWidth=3;fillColor=#dae8fc;strokeColor=#000000;opacity=80;" vertex="1" parent="1">
          <mxGeometry x="400" y="320" width="160" height="40" as="geometry" />
        </mxCell>
        <mxCell id="vwqqChAQIn_X0hhrEUNo-61" value="&lt;span style=&quot;font-size: 25px;&quot;&gt;$$(e_8,82)$$&lt;/span&gt;" style="rounded=0;whiteSpace=wrap;html=1;fontFamily=Helvetica;strokeWidth=3;fillColor=#dae8fc;strokeColor=#000000;opacity=80;" vertex="1" parent="1">
          <mxGeometry x="680" y="320" width="160" height="40" as="geometry" />
        </mxCell>
        <mxCell id="vwqqChAQIn_X0hhrEUNo-63" value="&lt;span style=&quot;font-size: 25px;&quot;&gt;$$0$$&lt;/span&gt;" style="rounded=0;whiteSpace=wrap;html=1;fontFamily=Helvetica;strokeWidth=3;fillColor=#d5e8d4;strokeColor=#000000;opacity=80;" vertex="1" parent="1">
          <mxGeometry x="680" y="200" width="160" height="40" as="geometry" />
        </mxCell>
      </root>
    </mxGraphModel>
  </diagram>
</mxfile>
